<?xml version="1.0" encoding="utf-8"?>
<!-- Generator: Adobe Illustrator 23.0.3, SVG Export Plug-In . SVG Version: 6.00 Build 0)  -->
<svg version="1.1" id="logo"  xmlns="http://www.w3.org/2000/svg" xmlns:xlink="http://www.w3.org/1999/xlink" x="0px" y="0px"
	 viewBox="0 0 612 555.94" style="enable-background:new 0 0 612 555.94;" xml:space="preserve">
<style type="text/css">
	.st0{fill:#00001E;}
	.st1{fill:url(#SVGID_1_);}
	.st2{fill:url(#SVGID_2_);}
	.st3{fill:url(#SVGID_3_);}
	.st4{fill:url(#SVGID_4_);}
	.st5{fill:#FFFFFF;}
</style>
<rect class="st0" width="612" height="555.94"/>
<g>
	<g>
		<linearGradient id="SVGID_1_" gradientUnits="userSpaceOnUse" x1="182.946" y1="211.0323" x2="401.8156" y2="211.0323">
			<stop  offset="0" style="stop-color:#FF8A09"/>
			<stop  offset="1" style="stop-color:#FF2819"/>
		</linearGradient>
		<path class="st1" d="M401.61,219.49c-0.05-0.66-0.1-1.32-0.17-1.97c-0.17-1.81-0.41-3.62-0.71-5.42c-0.3-1.8-0.66-3.59-1.08-5.36
			c-0.44-1.86-0.94-3.7-1.56-5.5c-0.32-0.93-0.63-1.86-0.95-2.79c-9.69,9.47-19.38,18.94-29.06,28.4c-1.51,1.47-3.04,2.97-4.09,4.8
			c-1.48,2.57-1.92,5.58-2.6,8.46c-3.51,14.92-14.89,28.2-29.69,32.21c-18.63,5.04-39.84-6.32-47.12-24.19
			c-5.04-12.38-3.98-26.24-4.9-39.57c-1.45-20.82-8.14-41.45-20.42-58.33s-30.29-29.8-50.59-34.63c-6.04-1.44-12.76-2.07-18.13,1.04
			c-5.17,3.01-8.07,9.28-7.54,15.24c0.53,5.96,4.24,11.42,9.3,14.62c4.76,3,10.43,4.08,15.7,6.05
			c11.87,4.44,21.83,13.75,27.05,25.29c8.04,17.78,4.66,38.4,7.06,57.77c2.64,21.34,13.09,42.11,30.32,54.98
			c5.89-10.5,19.79-15.7,31.12-11.64c11.33,4.06,18.78,16.89,16.66,28.74c3-0.15,6-0.3,9-0.46c-2.72-11.6,3.82-24.68,14.73-29.46
			c10.91-4.78,24.96-0.72,31.64,9.14c-0.02-0.04,1.79-1.72,1.95-1.88c0.65-0.65,1.28-1.3,1.9-1.97c1.24-1.33,2.44-2.71,3.59-4.13
			c1.15-1.42,2.25-2.87,3.3-4.36c1.05-1.49,2.05-3.02,3-4.58c0.95-1.56,1.84-3.15,2.69-4.77c0.84-1.62,1.64-3.26,2.38-4.93
			c0.74-1.67,1.43-3.36,2.06-5.08c0.63-1.71,1.21-3.45,1.73-5.2c0.52-1.75,0.99-3.52,1.4-5.3c0.41-1.78,0.77-3.57,1.07-5.38
			c0.3-1.8,0.54-3.61,0.72-5.43c0.18-1.82,0.31-3.64,0.38-5.46c0.07-1.82,0.07-3.65,0.02-5.47
			C401.75,221.81,401.69,220.65,401.61,219.49z"/>
		<linearGradient id="SVGID_2_" gradientUnits="userSpaceOnUse" x1="278.0381" y1="182.7464" x2="392.821" y2="182.7464">
			<stop  offset="0" style="stop-color:#FF8A09"/>
			<stop  offset="1" style="stop-color:#FF2819"/>
		</linearGradient>
		<path class="st2" d="M392.39,188.24c-5.31-9.43-12.55-17.76-21.05-24.43c-8.5-6.68-18.31-11.72-28.76-14.55
			c-0.58-0.16-1.15-0.3-1.73-0.45c-6.28-1.54-12.74-2.27-19.19-2.24c-15.33,0.08-30.65,4.48-43.63,12.61l11.92,38.92
			c0.99-1.31,2.05-2.55,3.16-3.73c5.34-5.62,12.03-9.69,19.46-11.53c2.92-0.72,5.95-1.11,9.07-1.11c20.17,0,36.98,16,40.68,37.2
			l30.49-29.89C392.68,188.77,392.54,188.5,392.39,188.24z"/>
		<linearGradient id="SVGID_3_" gradientUnits="userSpaceOnUse" x1="274.8559" y1="303.1718" x2="314.8909" y2="303.1718">
			<stop  offset="0" style="stop-color:#FF8A09"/>
			<stop  offset="1" style="stop-color:#FF2819"/>
		</linearGradient>
		<path class="st3" d="M314.89,303.17c0,1.46-0.16,2.9-0.46,4.27c-1.96,9.01-9.97,15.76-19.56,15.76
			c-11.06,0-20.02-8.97-20.02-20.03c0-3.26,0.78-6.35,2.18-9.07c3.3-6.49,10.05-10.95,17.84-10.95
			C305.93,283.15,314.89,292.11,314.89,303.17z"/>
		<linearGradient id="SVGID_4_" gradientUnits="userSpaceOnUse" x1="334.25" y1="301.3429" x2="374.294" y2="301.3429">
			<stop  offset="0" style="stop-color:#FF8A09"/>
			<stop  offset="1" style="stop-color:#FF2819"/>
		</linearGradient>
		<path class="st4" d="M374.29,301.34c0,11.06-8.96,20.03-20.02,20.03c-9.31,0-17.13-6.35-19.38-14.95
			c-0.42-1.62-0.65-3.32-0.65-5.08c0-11.06,8.96-20.02,20.03-20.02c7.07,0,13.28,3.67,16.84,9.2
			C373.13,293.64,374.29,297.35,374.29,301.34z"/>
	</g>
	<g>
		<path class="st5" d="M103.92,365.08l0.62-2.53c3.92-0.27,8.16-0.96,12.7-2.07c-1.2,3.55-2.08,6.41-2.63,8.58l-2.78,11.52
			c6.08,0,10.66-1.52,13.74-4.57c3.08-3.05,4.61-6.67,4.61-10.87c0-2.93-1.11-5.29-3.33-7.08c-2.22-1.79-5.53-2.69-9.93-2.69
			c-6.23,0-12.16,1.48-17.8,4.44c-5.64,2.96-10.04,6.83-13.18,11.6c-3.15,4.77-4.72,9.55-4.72,14.34c0,1.31,0.18,2.52,0.54,3.64
			c0.36,1.12,0.89,2.14,1.57,3.07c0.41,0.55,1.32,1.31,2.73,2.27c1.58,1.1,2.56,1.92,2.94,2.45c0.38,0.53,0.57,1.16,0.57,1.89
			c0,0.72-0.27,1.35-0.8,1.89c-0.53,0.53-1.18,0.8-1.93,0.8c-1.96,0-3.95-1.43-5.96-4.29c-2.01-2.86-3.02-6.39-3.02-10.59
			c0-5.78,1.73-11.39,5.19-16.81c3.46-5.42,8.35-9.77,14.68-13.04c6.33-3.27,13.3-4.91,20.9-4.91c6.19,0,10.9,1.22,14.11,3.67
			c3.22,2.44,4.82,5.42,4.82,8.93c0,3.34-1.08,6.38-3.25,9.11c-2.17,2.74-5.45,4.85-9.86,6.33c3.03,0.48,5.42,1.3,7.17,2.45
			c1.75,1.15,3.1,2.6,4.05,4.36c0.95,1.75,1.42,3.76,1.42,6.03c0,3.71-1.09,7.23-3.28,10.55c-2.18,3.32-5.4,6.07-9.65,8.25
			c-4.25,2.18-8.68,3.27-13.29,3.27c-1.34,0-4.21-0.14-8.62-0.41c-2.1-0.1-4.3-0.16-6.61-0.16c-3.51,0-6.62,0.28-9.34,0.83
			l0.77-2.84c3.61-0.21,6.18-1.07,7.71-2.6c1.53-1.53,2.97-4.89,4.31-10.1l7.64-29.99c0.31-1.28,0.46-2.25,0.46-2.91
			c0-0.52-0.22-0.98-0.64-1.38c-0.43-0.4-0.97-0.6-1.63-0.6C104.68,364.92,104.34,364.97,103.92,365.08z M111.02,383.68l-2.63,10.38
			c-1.34,5.37-2.63,9.51-3.86,12.4c-0.73,1.72-1.67,3.18-2.82,4.39c3.1,0.76,5.76,1.13,8,1.13c6.02,0,10.57-1.86,13.65-5.58
			c3.08-3.72,4.62-7.87,4.62-12.45c0-2.27-0.58-4.23-1.73-5.86c-1.15-1.64-2.66-2.78-4.54-3.44
			C119.84,384.01,116.27,383.68,111.02,383.68z"/>
		<path class="st5" d="M178.39,370.24l3.41-0.72l-3.87,13.06c-1.55,5.19-3.01,11.18-4.39,17.96c-0.76,3.68-1.14,6.06-1.14,7.12
			c0,1.07,0.43,1.6,1.29,1.6c0.55,0,1.43-0.36,2.63-1.08c2.13-1.27,4.18-2.86,6.14-4.75l1.65,2.01c-3.92,3.58-6.43,5.75-7.53,6.5
			c-2.2,1.51-4.3,2.63-6.3,3.35c-1.31,0.48-2.58,0.72-3.82,0.72c-0.9,0-1.57-0.21-2.01-0.62c-0.45-0.41-0.67-1.01-0.67-1.81
			c0-0.52,0.14-1.22,0.41-2.12l2.06-7.02c-2.96,3.54-6.49,6.59-10.58,9.13c-2.51,1.58-4.82,2.37-6.91,2.37c-2,0-3.53-0.71-4.59-2.12
			c-1.44-1.89-2.17-4.37-2.17-7.43c0-3.65,0.97-7.71,2.92-12.18c1.94-4.47,4.55-8.53,7.82-12.18c3.27-3.65,6.71-6.33,10.32-8.05
			c2.79-1.31,6.36-1.96,10.73-1.96c1.1,0,2.22,0.07,3.35,0.21L178.39,370.24z M171.99,378.13c-1.86-0.38-3.42-0.57-4.7-0.57
			c-3.1,0-5.8,0.85-8.1,2.55c-2.31,1.7-4.45,4.77-6.42,9.19c-1.98,4.42-2.97,8.83-2.97,13.24c0,2.34,0.39,4.02,1.19,5.06
			c0.79,1.03,1.82,1.55,3.1,1.55c2.37,0,4.92-1.28,7.64-3.84c2.72-2.56,4.71-6.25,5.99-11.07L171.99,378.13z"/>
		<path class="st5" d="M187.42,381.64l-1.65-2.43l3.82-2.58c3.72-2.55,6.33-4.18,7.84-4.9c0.86-0.41,1.65-0.62,2.37-0.62
			s1.41,0.41,2.06,1.24c3.03,3.82,5.57,8.96,7.64,15.44c2.06,6.48,3.1,12.76,3.1,18.85c0,0.79-0.03,1.99-0.1,3.61
			c5.81-10.7,8.72-19.21,8.72-25.51c0-1.31-0.29-3.05-0.88-5.22c-0.62-2.41-0.93-4.13-0.93-5.16c0-1,0.32-1.82,0.95-2.48
			c0.64-0.65,1.44-0.98,2.4-0.98c1.2,0,2.18,0.46,2.92,1.39c0.74,0.93,1.11,2.25,1.11,3.97c0,4.44-1.02,9.97-3.04,16.59
			c-2.03,6.62-5.22,13.74-9.57,21.36c-4.35,7.62-8.33,13.28-11.92,16.98c-3.6,3.7-7.07,6.35-10.42,7.95c-3.35,1.6-6.53,2.4-9.52,2.4
			c-2.27,0-3.98-0.42-5.13-1.26c-1.15-0.84-1.73-1.85-1.73-3.02c0-1.03,0.45-1.92,1.34-2.66c0.9-0.74,2.1-1.11,3.61-1.11
			c1.17,0,2.77,0.22,4.8,0.67c2.17,0.48,3.65,0.72,4.44,0.72c2.1,0,4.32-0.88,6.66-2.63c3.2-2.41,5.74-5.28,7.61-8.61
			c1.87-3.33,2.81-6.7,2.81-10.11c0-4.78-0.7-10.52-2.09-17.22c-1.39-6.7-3.36-11.82-5.91-15.36c-1.27-1.82-2.63-2.73-4.08-2.73
			C192.96,378.23,190.55,379.37,187.42,381.64z"/>
		<path class="st5" d="M278.65,371.11c3.37,0,6.17,1.34,8.41,4.02c2.24,2.68,3.35,6.42,3.35,11.2c0,7.64-2.68,14.49-8.05,20.56
			c-5.37,6.07-11.04,9.11-17.03,9.11c-3.68,0-6.65-1.2-8.9-3.61c-2.25-2.41-3.38-5.69-3.38-9.86c0-7.22,2.06-13.9,6.19-20.02
			C264.44,374.91,270.91,371.11,278.65,371.11z M274.26,374.98c-2.92,0-5.75,2.09-8.49,6.27c-2.73,4.18-4.1,9.95-4.1,17.31
			c0,4.47,0.84,8,2.53,10.58c1.24,1.89,2.89,2.84,4.95,2.84c2.89,0,5.52-1.79,7.9-5.37c3.03-4.64,4.54-10.41,4.54-17.29
			c0-5.16-0.7-8.84-2.09-11.04C278.11,376.08,276.36,374.98,274.26,374.98z"/>
		<path class="st5" d="M297.07,374.47h12.33c2.03-8.6,4.35-15,6.97-19.2c2.61-4.2,6.02-7.51,10.22-9.93
			c4.2-2.43,8.15-3.64,11.87-3.64c2.1,0,3.68,0.41,4.75,1.24c1.06,0.83,1.6,1.81,1.6,2.94c0,1.03-0.36,1.89-1.09,2.58
			c-0.72,0.69-1.67,1.03-2.84,1.03c-1.21,0-3.48-0.36-6.82-1.08c-1.65-0.34-2.95-0.52-3.88-0.52c-2.28,0-4.32,1.4-6.15,4.21
			c-1.83,2.8-3.29,6.6-4.39,11.38l-2.59,10.99h13.67l-0.82,3.66h-13.85l-8.08,32.92c-2.51,10.01-6.53,17.6-12.05,22.76
			c-5.52,5.16-11.52,7.74-17.98,7.74c-2.17,0-3.81-0.42-4.93-1.26c-1.12-0.84-1.68-1.88-1.68-3.12c0-1.07,0.39-1.92,1.16-2.55
			c0.77-0.64,1.88-0.95,3.33-0.95c0.72,0,1.79,0.09,3.2,0.26c2.41,0.31,4.71,0.46,6.91,0.46c3.41,0,5.88-0.8,7.43-2.4
			s3.1-5.51,4.64-11.74l10.48-42.11h-12.33L297.07,374.47z"/>
		<path class="st5" d="M396.46,372.61h-2.68c0.38-3.61,0.57-6.35,0.57-8.2c0-2.65-0.71-4.74-2.14-6.27c-1.43-1.53-3.36-2.3-5.79-2.3
			c-3.78,0-7.07,1.37-9.88,4.11s-4.22,5.81-4.22,9.22c0,1.83,0.39,3.48,1.16,4.96c0.77,1.48,2.48,3.55,5.12,6.2
			c4.84,4.75,8.01,8.47,9.52,11.16c1.51,2.68,2.26,5.3,2.26,7.85c0,3.75-1.14,7.37-3.43,10.84c-2.29,3.48-5.66,6.34-10.11,8.6
			c-4.46,2.25-9.16,3.38-14.11,3.38c-4.89,0-9-1.27-12.36-3.82c-3.35-2.55-5.03-5.23-5.03-8.05c0-1.51,0.44-2.77,1.32-3.77
			c0.88-1,1.88-1.5,3.02-1.5c1.17,0,2.13,0.46,2.89,1.39c0.48,0.55,0.96,1.79,1.45,3.72c0.55,2.34,1.22,4.03,2.01,5.08
			c0.79,1.05,1.88,1.91,3.28,2.58c1.39,0.67,2.92,1.01,4.57,1.01c4.92,0,9.22-1.66,12.9-4.98c3.68-3.32,5.52-7,5.52-11.03
			c0-1.38-0.23-2.75-0.7-4.1c-0.46-1.36-1.32-2.9-2.55-4.62c-0.86-1.17-2.77-3.24-5.73-6.2c-2.92-2.89-4.77-4.87-5.52-5.94
			c-1.07-1.55-1.86-3.11-2.37-4.67c-0.52-1.57-0.77-3.12-0.77-4.67c0-3.13,1.05-6.28,3.15-9.45c2.1-3.17,4.82-5.69,8.18-7.56
			c3.35-1.88,7.16-2.81,11.43-2.81c2.13,0,4.76,0.33,7.89,0.98c1.79,0.35,3.34,0.6,4.64,0.77c-0.76,2.24-1.34,4.34-1.75,6.32
			C397.75,362.8,397.18,366.73,396.46,372.61z"/>
		<path class="st5" d="M415.4,363.17l8.19-3.14l-3.71,14.44h10.69l-0.83,3.66h-10.69l-4.5,17.29c-1.43,5.19-2.14,8.8-2.14,10.83
			c0,0.93,0.2,1.6,0.59,2.01c0.4,0.41,0.94,0.62,1.63,0.62c1.07,0,2.7-0.64,4.9-1.91c2.89-1.68,5.64-3.59,8.26-5.73l1.96,2.37
			c-7.53,5.68-12.57,9.15-15.12,10.42s-4.59,1.91-6.14,1.91c-1.27,0-2.28-0.46-3.02-1.39c-0.74-0.93-1.11-2.44-1.11-4.54
			c0-2.48,0.65-6.26,1.96-11.35l5.25-20.54h-8.36l0.93-3.66h8.37L415.4,363.17z"/>
		<path class="st5" d="M434.59,381.64l-1.65-2.43l3.82-2.58c3.71-2.55,6.33-4.18,7.84-4.9c0.86-0.41,1.65-0.62,2.37-0.62
			c0.72,0,1.41,0.41,2.06,1.24c3.03,3.82,5.57,8.96,7.64,15.44c2.06,6.48,3.1,12.76,3.1,18.85c0,0.79-0.03,1.99-0.1,3.61
			c5.81-10.7,8.72-19.21,8.72-25.51c0-1.31-0.29-3.05-0.88-5.22c-0.62-2.41-0.93-4.13-0.93-5.16c0-1,0.32-1.82,0.95-2.48
			c0.64-0.65,1.44-0.98,2.4-0.98c1.2,0,2.18,0.46,2.92,1.39c0.74,0.93,1.11,2.25,1.11,3.97c0,4.44-1.01,9.97-3.04,16.59
			c-2.03,6.62-5.22,13.74-9.57,21.36c-4.35,7.62-8.33,13.28-11.92,16.98c-3.6,3.7-7.07,6.35-10.42,7.95c-3.35,1.6-6.53,2.4-9.52,2.4
			c-2.27,0-3.98-0.42-5.13-1.26c-1.15-0.84-1.73-1.85-1.73-3.02c0-1.03,0.45-1.92,1.34-2.66c0.9-0.74,2.1-1.11,3.61-1.11
			c1.17,0,2.77,0.22,4.8,0.67c2.17,0.48,3.65,0.72,4.44,0.72c2.1,0,4.32-0.88,6.66-2.63c3.2-2.41,5.74-5.28,7.61-8.61
			c1.87-3.33,2.81-6.7,2.81-10.11c0-4.78-0.7-10.52-2.09-17.22c-1.39-6.7-3.36-11.82-5.91-15.36c-1.27-1.82-2.63-2.73-4.08-2.73
			C440.13,378.23,437.72,379.37,434.59,381.64z"/>
		<path class="st5" d="M498.48,402.08l1.75,1.86c-2.68,3.03-5.86,5.79-9.52,8.28c-3.66,2.49-6.68,3.74-9.06,3.74
			c-1.07,0-1.94-0.41-2.63-1.21c-0.69-0.81-1.03-1.92-1.03-3.33c0-2.75,1.06-8.46,3.2-17.13l5.57-22.65
			c2.03-8.19,3.73-13.67,5.1-16.46c2.13-4.21,5.14-7.49,9.04-9.82c3.9-2.33,8.01-3.5,12.34-3.5c1.48,0,2.64,0.36,3.48,1.07
			s1.26,1.57,1.26,2.57c0,1.11-0.41,2.02-1.23,2.73c-0.82,0.71-2.02,1.06-3.6,1.06c-1.03,0-2.49-0.17-4.37-0.52
			c-1.65-0.28-3.17-0.41-4.58-0.41s-2.47,0.29-3.19,0.87c-0.99,0.82-1.89,2.55-2.7,5.19s-2.12,7.84-3.93,15.61l-5.15,21.62
			c-2.55,10.84-3.82,16.5-3.82,16.98c0,1.1,0.4,1.65,1.19,1.65c0.76,0,1.86-0.45,3.3-1.34
			C492.76,407.15,495.62,404.86,498.48,402.08z"/>
		<path class="st5" d="M529.39,401.56l1.7,2.27c-8.43,8.02-15.65,12.02-21.67,12.02c-2.44,0-4.31-0.83-5.6-2.48
			c-1.29-1.65-1.94-4.3-1.94-7.95c0-7.36,2.24-14.69,6.71-21.98c5.02-8.29,11.02-12.44,18.01-12.44c2.44,0,4.31,0.61,5.6,1.83
			c1.29,1.22,1.94,2.9,1.94,5.03c0,2.24-0.77,4.44-2.32,6.61c-1.55,2.17-4.32,4.42-8.31,6.76c-2,1.13-6.26,3.18-12.8,6.14
			c-0.31,1.86-0.46,3.63-0.46,5.31c0,2.44,0.39,4.15,1.16,5.11c0.77,0.96,1.9,1.45,3.38,1.45c1.41,0,2.96-0.39,4.64-1.19
			C521.7,406.99,525.02,404.83,529.39,401.56z M511.33,394.08c5.54-2.48,9.7-5.14,12.49-8c1.89-1.99,2.84-3.97,2.84-5.93
			c0-1.48-0.39-2.66-1.16-3.53c-0.77-0.88-1.78-1.32-3.02-1.32c-1.27,0-2.51,0.48-3.72,1.45c-1.62,1.27-2.98,3.2-4.08,5.78
			C513.1,386.3,511.98,390.15,511.33,394.08z"/>
	</g>
</g>
</svg>
